<?xml version="1.0" encoding="UTF-8" standalone="no"?>
<svg width="30px" height="24px" viewBox="0 0 30 24" version="1.1" xmlns="http://www.w3.org/2000/svg" xmlns:xlink="http://www.w3.org/1999/xlink">
    <!-- Generator: Sketch 43.1 (39012) - http://www.bohemiancoding.com/sketch -->
    <title>Fill 2</title>
    <desc>Created with Sketch.</desc>
    <defs></defs>
    <g id="Page-1" stroke="none" stroke-width="1" fill="none" fill-rule="evenodd">
        <g id="/signup" transform="translate(-521.000000, -417.000000)" fill="#C2C2C2">
            <g id="SignUp-Dialog" transform="translate(474.000000, 258.000000)">
                <g id="Email-input" transform="translate(32.000000, 138.112628)">
                    <g id="Page-1" transform="translate(15.000000, 21.549488)">
                        <path d="M26.2499984,-1.77635684e-15 L2.91666649,-1.77635684e-15 C1.31250005,-1.77635684e-15 0.0145833179,1.28562292 0.0145833179,2.85693953 L0,19.9985767 C0,21.5698939 1.31250005,22.8555163 2.91666649,22.8555163 L26.2499984,22.8555163 C27.8541654,22.8555163 29.1666649,21.5698939 29.1666649,19.9985767 L29.1666649,2.85693953 C29.1666649,1.28562292 27.8541654,-1.77635684e-15 26.2499984,-1.77635684e-15 Z M26.2499984,5.71387907 L14.5833325,12.8562279 L2.91666649,5.71387907 L2.91666649,2.85693953 L14.5833325,9.99928836 L26.2499984,2.85693953 L26.2499984,5.71387907 Z" id="Fill-2"></path>
                    </g>
                </g>
            </g>
        </g>
    </g>
</svg>