<?xml version="1.0" encoding="UTF-8" standalone="no"?>
<svg width="36px" height="36px" viewBox="0 0 36 36" version="1.1" xmlns="http://www.w3.org/2000/svg" xmlns:xlink="http://www.w3.org/1999/xlink">
    <!-- Generator: Sketch 43.1 (39012) - http://www.bohemiancoding.com/sketch -->
    <title>Facebook</title>
    <desc>Created with Sketch.</desc>
    <defs></defs>
    <g id="Page-1" stroke="none" stroke-width="1" fill="none" fill-rule="evenodd">
        <g id="/login" transform="translate(-584.000000, -703.000000)" fill="#FFFFFF">
            <g id="Login-Dialog" transform="translate(474.000000, 233.000000)">
                <g id="Login-Copy" transform="translate(31.000000, 454.000000)">
                    <g id="button-content" transform="translate(79.000000, 16.000000)">
                        <path d="M33.6822159,35.5025806 L24.59768,35.5025806 L24.59768,21.7539374 L29.2317158,21.7539374 L29.9260443,16.395477 L24.59768,16.395477 L24.59768,12.9749979 C24.59768,11.4238392 25.0307856,10.3668464 27.2642899,10.3668464 L30.1134645,10.3658793 L30.1134645,5.57314699 C29.6201514,5.5083542 27.9294857,5.36232866 25.9620598,5.36232866 C21.854354,5.36232866 19.0420808,7.85926871 19.0420808,12.4450509 L19.0420808,16.395477 L14.3963918,16.395477 L14.3963918,21.7539374 L19.0420808,21.7539374 L19.0420808,35.5025806 L1.96742596,35.5025806 C0.880777565,35.5025806 0,34.6244933 0,33.542357 L0,1.96022366 C0,0.877120305 0.880777565,0 1.96742596,0 L33.6822159,0 C34.7688643,0 35.6496419,0.877120305 35.6496419,1.96022366 L35.6496419,33.542357 C35.6496419,34.6244933 34.7688643,35.5025806 33.6822159,35.5025806 Z" id="Facebook"></path>
                    </g>
                </g>
            </g>
        </g>
    </g>
</svg>