<?xml version="1.0" encoding="UTF-8" standalone="no"?>
<svg width="26px" height="34px" viewBox="0 0 26 34" version="1.1" xmlns="http://www.w3.org/2000/svg" xmlns:xlink="http://www.w3.org/1999/xlink">
    <!-- Generator: Sketch 43.1 (39012) - http://www.bohemiancoding.com/sketch -->
    <title>Fill 2</title>
    <desc>Created with Sketch.</desc>
    <defs></defs>
    <g id="Page-1" stroke="none" stroke-width="1" fill="none" fill-rule="evenodd">
        <g id="/login" transform="translate(-522.000000, -476.000000)" fill="#C2C2C2">
            <g id="Login-Dialog" transform="translate(474.000000, 233.000000)">
                <g id="Username-input-Copy" transform="translate(32.000000, 230.000000)">
                    <g id="lock-icon" transform="translate(16.000000, 13.000000)">
                        <path d="M22.6666658,11.3333329 L21.0476183,11.3333329 L21.0476183,8.0952378 C21.0476183,3.62666653 17.4209521,0 12.9523805,0 C8.48380884,0 4.85714268,3.62666653 4.85714268,8.0952378 L4.85714268,11.3333329 L3.23809512,11.3333329 C1.45714295,11.3333329 0,12.7904751 0,14.571428 L0,30.7619036 C0,32.5428564 1.45714295,33.9999987 3.23809512,33.9999987 L22.6666658,33.9999987 C24.4476186,33.9999987 25.9047609,32.5428564 25.9047609,30.7619036 L25.9047609,14.571428 C25.9047609,12.7904751 24.4476186,11.3333329 22.6666658,11.3333329 Z M12.9523805,25.9047609 C11.1714275,25.9047609 9.71428535,24.4476186 9.71428535,22.6666658 C9.71428535,20.8857129 11.1714275,19.4285707 12.9523805,19.4285707 C14.7333333,19.4285707 16.1904756,20.8857129 16.1904756,22.6666658 C16.1904756,24.4476186 14.7333333,25.9047609 12.9523805,25.9047609 Z M17.9714284,11.3333329 L7.93333241,11.3333329 L7.93333241,8.0952378 C7.93333241,5.3266664 10.183809,3.07619051 12.9523805,3.07619051 C15.7209518,3.07619051 17.9714284,5.3266664 17.9714284,8.0952378 L17.9714284,11.3333329 Z" id="Fill-2"></path>
                    </g>
                </g>
            </g>
        </g>
    </g>
</svg>