<?xml version="1.0" encoding="UTF-8" standalone="no"?>
<svg width="27px" height="27px" viewBox="0 0 27 27" version="1.1" xmlns="http://www.w3.org/2000/svg" xmlns:xlink="http://www.w3.org/1999/xlink">
    <!-- Generator: Sketch 43.1 (39012) - http://www.bohemiancoding.com/sketch -->
    <title>Fill 2</title>
    <desc>Created with Sketch.</desc>
    <defs></defs>
    <g id="Page-1" stroke="none" stroke-width="1" fill="none" fill-rule="evenodd">
        <g id="/login" transform="translate(-521.000000, -396.000000)" fill="#C2C2C2">
            <g id="Login-Dialog" transform="translate(474.000000, 233.000000)">
                <g id="Username-input" transform="translate(32.000000, 142.000000)">
                    <g id="Page-1" transform="translate(11.000000, 10.000000)">
                        <path d="M4.37499974,14.2916645 L4.37499974,34.70833 C4.37499974,36.312497 5.67291612,37.6249965 7.29166623,37.6249965 L27.7083317,37.6249965 C29.3124987,37.6249965 30.6249982,36.312497 30.6249982,34.70833 L30.6249982,14.2916645 C30.6249982,12.6874981 29.3124987,11.3749981 27.7083317,11.3749981 L7.29166623,11.3749981 C5.67291612,11.3749981 4.37499974,12.6874981 4.37499974,14.2916645 Z M21.8749987,20.1249975 C21.8749987,22.5458304 19.9208318,24.4999973 17.4999989,24.4999973 C15.0791659,24.4999973 13.1249992,22.5458304 13.1249992,20.1249975 C13.1249992,17.7041646 15.0791659,15.7499978 17.4999989,15.7499978 C19.9208318,15.7499978 21.8749987,17.7041646 21.8749987,20.1249975 Z M8.74999948,31.7916635 C8.74999948,28.874997 14.5833325,27.2708299 17.499999,27.2708299 C20.4166654,27.2708299 26.2499984,28.874997 26.2499984,31.7916635 L26.2499984,33.2499967 L8.74999948,33.2499967 L8.74999948,31.7916635 Z" id="Fill-2"></path>
                    </g>
                </g>
            </g>
        </g>
    </g>
</svg>