<?xml version="1.0" encoding="utf-8"?>
<!-- Generator: Adobe Illustrator 19.0.0, SVG Export Plug-In . SVG Version: 6.00 Build 0)  -->
<svg version="1.1" id="Layer_1" xmlns="http://www.w3.org/2000/svg" xmlns:xlink="http://www.w3.org/1999/xlink" x="0px" y="0px"
	 viewBox="-479 481 40 40" style="enable-background:new -479 481 40 40;" xml:space="preserve">
<path d="M-474.5,513.7c0.4,0.5,0.8,0.9,1.2,1.4l0.2,0.2c0.4,0.4,0.9,0.8,1.4,1.2c7.9,6.4,19.5,6,26.8-1.3c7.3-7.3,7.8-18.9,1.3-26.8
	c-0.4-0.5-0.8-0.9-1.2-1.4l-0.2-0.2c-0.4-0.4-0.9-0.8-1.4-1.2c-7.9-6.4-19.5-6-26.8,1.3C-480.5,494.2-480.9,505.8-474.5,513.7z
	 M-447.7,512.3c-5.8,5.8-14.8,6.2-21.1,1.3l22.4-22.4C-441.5,497.5-441.9,506.6-447.7,512.3z M-449.2,488.4l-22.4,22.4
	c-4.9-6.3-4.4-15.4,1.3-21.1C-464.6,483.9-455.5,483.5-449.2,488.4z"/>
</svg>
